<svg width="362" height="172" viewBox="0 0 362 172" fill="none" xmlns="http://www.w3.org/2000/svg">
<path d="M24.056 68L0.632 1.952H23.288L36.536 46.112H36.92L50.264 1.952H71.96L48.632 68H24.056ZM119.641 68L116.857 58.688H93.7213L90.9373 68H69.2413L93.3373 1.952H118.009L142.105 68H119.641ZM98.1373 43.904H112.441L105.529 20.384H105.145L98.1373 43.904ZM181.633 0.799995C187.969 0.799995 193.665 1.76 198.721 3.68C203.777 5.6 207.777 8.448 210.721 12.224C213.729 15.936 215.233 20.48 215.233 25.856H194.977C194.977 23.104 193.761 20.896 191.329 19.232C188.897 17.504 185.953 16.64 182.497 16.64C177.505 16.64 173.729 17.984 171.169 20.672C168.609 23.296 167.329 27.04 167.329 31.904V38.048C167.329 42.912 168.609 46.688 171.169 49.376C173.729 52 177.505 53.312 182.497 53.312C185.953 53.312 188.897 52.512 191.329 50.912C193.761 49.248 194.977 47.136 194.977 44.576H180.001V31.136H215.233V68H204.289L202.177 61.472C196.161 66.592 188.289 69.152 178.561 69.152C167.617 69.152 159.393 66.304 153.889 60.608C148.385 54.848 145.633 46.304 145.633 34.976C145.633 23.776 148.737 15.296 154.945 9.536C161.217 3.712 170.113 0.799995 181.633 0.799995ZM272.641 68L269.857 58.688H246.721L243.937 68H222.241L246.337 1.952H271.009L295.105 68H272.641ZM251.137 43.904H265.441L258.529 20.384H258.145L251.137 43.904ZM330.848 0.799995C339.296 0.799995 346.24 2.528 351.68 5.984C357.12 9.376 359.904 14.432 360.032 21.152V22.304H340.16V21.92C340.16 20 339.456 18.4 338.048 17.12C336.64 15.84 334.496 15.2 331.616 15.2C328.8 15.2 326.624 15.616 325.088 16.448C323.616 17.28 322.88 18.304 322.88 19.52C322.88 21.248 323.904 22.528 325.952 23.36C328 24.192 331.296 25.056 335.84 25.952C341.152 27.04 345.504 28.192 348.896 29.408C352.352 30.56 355.36 32.48 357.92 35.168C360.48 37.856 361.792 41.504 361.856 46.112C361.856 53.92 359.2 59.712 353.888 63.488C348.64 67.264 341.6 69.152 332.768 69.152C322.464 69.152 314.432 67.424 308.672 63.968C302.976 60.512 300.128 54.4 300.128 45.632H320.192C320.192 48.96 321.056 51.2 322.784 52.352C324.512 53.44 327.2 53.984 330.848 53.984C333.536 53.984 335.744 53.696 337.472 53.12C339.264 52.544 340.16 51.36 340.16 49.568C340.16 47.968 339.168 46.784 337.184 46.016C335.264 45.184 332.096 44.32 327.68 43.424C322.304 42.272 317.856 41.088 314.336 39.872C310.816 38.592 307.744 36.512 305.12 33.632C302.496 30.752 301.184 26.848 301.184 21.92C301.184 14.688 303.968 9.376 309.536 5.984C315.168 2.528 322.272 0.799995 330.848 0.799995ZM34.712 105.952C57.816 105.952 69.368 116.96 69.368 138.976C69.368 160.992 57.816 172 34.712 172H6.104V105.952H34.712ZM27.32 156.16H34.328C43.224 156.16 47.672 151.392 47.672 141.856V136.096C47.672 126.56 43.224 121.792 34.328 121.792H27.32V156.16ZM80.8228 105.952H137.943V121.792H102.039V130.912H132.759V146.08H102.039V156.16H138.615V172H80.8228V105.952ZM220.089 122.848V172H198.873V122.848H177.177V105.952H241.689V122.848H220.089ZM252.314 172V105.952H273.53V172H252.314Z" fill="white"/>
</svg>
